<?xml version="1.0" encoding="UTF-8" standalone="no"?>
<svg
   xmlns:dc="http://purl.org/dc/elements/1.1/"
   xmlns:cc="http://creativecommons.org/ns#"
   xmlns:rdf="http://www.w3.org/1999/02/22-rdf-syntax-ns#"
   xmlns:svg="http://www.w3.org/2000/svg"
   xmlns="http://www.w3.org/2000/svg"
   viewBox="0 0 256 256"
   height="256"
   width="256"
   version="1.1"
   id="svg3390">
  <metadata
     id="metadata3396">
    <rdf:RDF>
      <cc:Work
         rdf:about="">
        <dc:format>image/svg+xml</dc:format>
        <dc:type
           rdf:resource="http://purl.org/dc/dcmitype/StillImage" />
        <dc:title></dc:title>
      </cc:Work>
    </rdf:RDF>
  </metadata>
  <defs
     id="defs3394" />
  <path
     id="path3400"
     d="m 0,127.96751 0,-128.0324887 73.758334,0 73.758336,0 22.22988,22.2499997 22.22988,22.25 0.26179,33.916661 0.26178,33.916658 7,1.37927 c 3.94981,0.77827 11.13955,3.41133 16.5,6.04271 7.89348,3.87481 10.94005,6.10772 18.01561,13.20407 9.60237,9.63057 14.80697,17.85221 18.70033,29.54063 2.3597,7.08415 2.66477,9.5455 2.66477,21.5 0,11.9545 -0.30507,14.41585 -2.66477,21.5 -3.81918,11.46571 -9.06341,19.84128 -18.21295,29.08793 -8.86721,8.96131 -17.17767,14.14389 -29.33634,18.29475 L 197.5,255.43502 98.750004,255.71751 0,256 0,127.96751 Z M 131.87113,233.13353 C 119.31438,219.7286 113.19587,205.23749 112.2594,186.68502 l -0.54263,-10.75 -39.858386,0 -39.858384,0 0,-8 0,-8 41.832424,0 41.832426,0 3.97587,-8 3.97588,-8 -45.808306,0 -45.808294,0 0,-7.95916 0,-7.95915 53.750004,-0.29085 53.749996,-0.29084 5.23238,-3.67052 c 6.28203,-4.40685 18.9329,-9.45088 26.0823,-10.39928 L 176,112.67736 l 0,-24.37117 0,-24.371169 -24,0 -24,0 0,-24 0,-24 -55.999996,0 -56.000004,0 0,111.999999 0,112 61.121124,0 61.121136,0 -6.37113,-6.80149 z M 32,103.93502 l 0,-7.999999 64.000004,0 63.999996,0 0,7.999999 0,8 -63.999996,0 -64.000004,0 0,-8 z m 163.25727,133.53334 c 21.57744,-4.57246 39.58903,-23.78304 42.92585,-45.78334 4.39128,-28.95248 -16.98688,-57.46696 -46.43312,-61.93312 -35.19764,-5.33849 -67.27161,26.73548 -61.93312,61.93312 3.94913,26.03734 27.6204,46.82925 53.68312,47.15314 2.75,0.0342 8.04077,-0.58224 11.75727,-1.3698 z M 159.48015,199.51628 143.5,184.09754 l 8.24203,-8.31572 8.24204,-8.31572 8.01386,7.96686 8.01385,7.96685 15.99619,-15.97274 15.99618,-15.97275 8.24792,8.32141 8.24793,8.3214 -23.95407,23.41895 c -13.17473,12.88041 -24.20866,23.41894 -24.51984,23.41894 -0.31118,0 -7.75685,-6.93843 -16.54594,-15.41874 z M 172,47.671624 c 0,-0.144869 -6.3,-6.55134 -14,-14.236603 l -14,-13.973206 0,14.236603 0,14.236603 14,0 c 7.7,0 14,-0.118529 14,-0.263397 z"
     style="fill:#000000" />
</svg>
