<?xml version="1.0" encoding="UTF-8" standalone="no"?>
<!-- Created with Inkscape (http://www.inkscape.org/) -->

<svg
   xmlns:dc="http://purl.org/dc/elements/1.1/"
   xmlns:cc="http://creativecommons.org/ns#"
   xmlns:rdf="http://www.w3.org/1999/02/22-rdf-syntax-ns#"
   xmlns:svg="http://www.w3.org/2000/svg"
   xmlns="http://www.w3.org/2000/svg"
   xmlns:sodipodi="http://sodipodi.sourceforge.net/DTD/sodipodi-0.dtd"
   xmlns:inkscape="http://www.inkscape.org/namespaces/inkscape"
   id="svg3406"
   version="1.1"
   inkscape:version="0.91 r"
   width="485"
   height="388.75"
   viewBox="0 0 485 388.75"
   sodipodi:docname="hands-partners-icon.svg">
  <metadata
     id="metadata3412">
    <rdf:RDF>
      <cc:Work
         rdf:about="">
        <dc:format>image/svg+xml</dc:format>
        <dc:type
           rdf:resource="http://purl.org/dc/dcmitype/StillImage" />
      </cc:Work>
    </rdf:RDF>
  </metadata>
  <defs
     id="defs3410" />
  <sodipodi:namedview
     pagecolor="#ffffff"
     bordercolor="#666666"
     borderopacity="1"
     objecttolerance="10"
     gridtolerance="10"
     guidetolerance="10"
     inkscape:pageopacity="0"
     inkscape:pageshadow="2"
     inkscape:window-width="1600"
     inkscape:window-height="850"
     id="namedview3408"
     showgrid="false"
     inkscape:zoom="1.5151125"
     inkscape:cx="242.5"
     inkscape:cy="194.375"
     inkscape:window-x="0"
     inkscape:window-y="0"
     inkscape:window-maximized="1"
     inkscape:current-layer="svg3406" />
  <path
     style="fill:#000000"
     d="m 157.63476,386.54791 c -4.65838,-2.07931 -10.03882,-7.7228 -11.79547,-12.37217 -1.94236,-5.14088 -1.62389,-15.41104 0.61195,-19.73468 l 1.94147,-3.7544 -4.12897,2.17655 c -5.10945,2.69342 -15.36531,2.75367 -20.41141,0.11988 -4.84076,-2.52656 -10.09061,-8.13095 -11.76304,-12.5574 -2.01758,-5.33996 -1.5945,-13.55779 0.9555,-18.55946 l 2.28502,-4.48194 -5.09752,2.31519 c -6.47052,2.93881 -12.500471,2.9389 -18.847531,3.1e-4 C 78.663718,313.81014 73.27671,299.62265 79.413727,288.17231 l 2.403962,-4.48527 -4.591462,2.39819 c -3.401101,1.77643 -6.428661,2.27715 -11.677886,1.93133 -16.899168,-1.11331 -26.960454,-17.71098 -19.896224,-32.82195 1.285602,-2.75 7.741217,-10.33186 14.345814,-16.84858 L 72.006288,226.49745 36.383027,190.7963 C 12.854627,167.21646 0.7597675,154.2229 0.7597675,152.52611 c 0,-3.11766 3.70506,-6.7065 6.92369,-6.7065 1.41234,0 16.6296895,14.2467 38.0935995,35.66379 l 35.741756,35.66378 4.580326,-1.91378 c 8.09155,-3.38087 18.730971,-1.65235 25.060391,4.07139 6.60688,5.97465 9.22864,20.02309 5.19313,27.8269 -2.1154,4.09074 -1.47292,4.45969 3.1571,1.81292 6.54975,-3.74417 18.66503,-1.73813 25.44552,4.21324 6.46776,5.6769 9.09773,19.33948 5.17178,26.86715 -2.51718,4.82649 -2.44965,4.90996 2.07815,2.56854 6.19418,-3.20313 18.26829,-1.99241 24.04104,2.41067 8.63909,6.58937 11.77004,17.99509 7.64793,27.86068 -1.73867,4.16121 -1.7174,4.40229 0.3125,3.5435 6.16182,-2.60685 12.39671,-3.30124 17.43375,-1.94164 13.84243,3.73636 21.44585,19.12338 15.94972,32.27745 l -1.91962,4.59429 11.05573,11.05574 c 12.11359,12.11358 17.55745,15.02693 24.95967,13.35746 9.2478,-2.08571 15.78465,-12.83574 12.97742,-21.34171 -0.95321,-2.88825 -9.72461,-12.55164 -27.64984,-30.46163 -26.81895,-26.79614 -29.03332,-29.84916 -24.75375,-34.12874 4.17697,-4.17696 7.23882,-1.9495 34.65878,25.21397 30.31677,30.03317 31.29429,30.63552 42.0179,25.89196 4.57234,-2.02256 6.15669,-3.60691 8.17925,-8.17925 4.75331,-10.74565 4.15966,-11.70809 -25.88319,-41.9632 -27.23847,-27.43091 -29.45489,-30.48133 -25.22274,-34.71348 3.58189,-3.58188 6.93288,-1.0718 32.81293,24.57877 27.79135,27.54491 31.29054,30.02426 40.05401,28.38022 5.51813,-1.03521 11.31566,-6.5796 12.90718,-12.34361 2.58436,-9.3598 0.95235,-11.744 -28.05798,-40.98978 -21.36912,-21.54255 -26.61376,-27.47952 -25.94941,-29.375 1.02786,-2.93265 4.09434,-5.5006 6.56846,-5.5006 1.02155,0 13.99216,12.04569 28.82359,26.76818 23.49645,23.32389 27.60197,26.88636 31.90712,27.68666 11.60678,2.1576 20.6841,-5.50042 20.6841,-17.44999 l 0,-6.37543 -65.9375,-65.82272 -65.9375,-65.8227 -7.11512,-1.54972 c -9.91163,-2.1588 -16.83591,-0.0884 -24.92124,7.4517 -5.33494,4.97515 -7.29522,8.35297 -14.72781,25.37779 -10.98869,25.17028 -12.1662,27.09298 -19.2897,31.49711 -19.44965,12.02479 -43.76377,-1.11473 -43.73718,-23.63588 0.008,-6.91791 1.48861,-10.89553 19.07488,-51.25 22.5296,-51.697728 23.71061,-53.991545 31.59614,-61.367522 9.03015,-8.446652 18.04621,-12.13598 31.22526,-12.77723 9.49366,-0.46193 12.3942,-0.04851 23.125,3.296038 6.74837,2.103319 30.79716,9.246357 53.44174,15.873419 l 41.17196,12.049203 48.57875,47.640952 48.57876,47.64094 -31.95525,31.97299 -31.95524,31.97298 7.0017,6.84912 c 10.39768,10.17106 14.25617,17.52588 14.27063,27.20176 0.0199,13.3063 -5.2216,21.78963 -16.86328,27.29324 -3.53121,1.66938 -8.59306,2.96 -11.63627,2.9669 -3.32086,0.007 -5.08576,0.49844 -4.60261,1.2802 1.4958,2.42025 -2.04494,14.82616 -5.65305,19.80703 -4.65639,6.42795 -12.61498,11.04441 -20.92057,12.1352 -5.65625,0.74285 -6.5625,1.23985 -6.5625,3.59895 0,5.31808 -3.72525,15.12272 -7.46258,19.6411 -4.69313,5.6739 -12.62212,9.62396 -20.23088,10.07858 l -5.79317,0.34615 -0.79853,7.00877 c -1.72996,15.18396 -13.91681,26.08168 -29.19249,26.10451 -4.31895,0.006 -9.8896,-0.83936 -12.3792,-1.87959 -2.4896,-1.04022 -10.06528,-7.33301 -16.83485,-13.98399 l -12.3083,-12.09266 -12.1875,11.9383 c -6.70312,6.56606 -13.98768,12.85885 -16.18792,13.98398 -4.81833,2.46393 -15.77311,2.60686 -20.99958,0.27398 z M 393.87513,96.22739 C 366.10451,68.951656 342.7285,45.054781 341.92841,43.123213 338.98893,36.026657 341.09105,32.212733 356.10845,17.396207 370.37576,3.319742 374.0693,1.080174 380.44726,2.638441 c 4.21273,1.029254 101.96789,98.124319 104.18823,103.484689 2.80519,6.77233 -0.0192,11.72783 -15.02493,26.36096 -13.3883,13.05595 -13.79625,13.33552 -19.45921,13.33552 l -5.78421,0 -50.49201,-49.59222 z"
     id="path3396"
     inkscape:connector-curvature="0" />
</svg>
