<?xml version="1.0" encoding="UTF-8" standalone="no"?>
<svg
   xmlns:dc="http://purl.org/dc/elements/1.1/"
   xmlns:cc="http://creativecommons.org/ns#"
   xmlns:rdf="http://www.w3.org/1999/02/22-rdf-syntax-ns#"
   xmlns:svg="http://www.w3.org/2000/svg"
   xmlns="http://www.w3.org/2000/svg"
   version="1.1"
   id="svg4154"
   viewBox="0 0 1036 461"
   height="461"
   width="1036">
  <defs
     id="defs4156" />
  <metadata
     id="metadata4159">
    <rdf:RDF>
      <cc:Work
         rdf:about="">
        <dc:format>image/svg+xml</dc:format>
        <dc:type
           rdf:resource="http://purl.org/dc/dcmitype/StillImage" />
        <dc:title></dc:title>
      </cc:Work>
    </rdf:RDF>
  </metadata>
  <g
     transform="translate(0,-591.36216)"
     id="layer1">
    <g
       transform="matrix(0.97777769,0,0,0.97777769,126.53,12.885879)"
       id="g4776">
      <path
         class="st0"
         d="m 323.60284,746.62711 c 0,72.79399 -43.01485,144.26469 -141.61779,144.26469 l -102.57304,0 0,90 c 0,39.7054 -31.76488,71.4704 -71.47095,71.4704 l 0,0 -7.94106,0 0,-418.89717 c 0,-17.20574 13.89713,-31.10287 30.44106,-31.10287 0,0 0,0 0,0 l 151.54399,0 c 99.26495,0 141.61779,72.79458 141.61779,144.26495 m -79.41178,0 c 0,-35.07389 -18.52905,-72.79459 -64.19106,-72.79459 l -100.58799,0 0,145.58858 98.60294,0 C 225,818.75929 244.19106,783.02417 244.19106,746.62711"
         id="path5" />
      <path
         class="st0"
         d="m 244.19106,1026.5532 0,0 c 3.30894,-28.45599 27.13218,-50.29391 56.25,-50.29391 l 0,0 c 46.32388,0 64.19258,-33.08819 64.19258,-72.79426 l 0,-221.69086 c 0,-43.67696 35.7327,-79.41201 79.4109,-79.41201 l 0,300.44106 c 0,80.07389 -38.3825,149.55898 -143.60348,149.55898 -13.89648,-0.6621 -27.79393,-2.6472 -41.69106,-5.2946 -9.26495,-1.9851 -15.22036,-10.5891 -14.55894,-20.5144"
         id="path7" />
      <path
         class="st1"
         d="m 798.75004,832.65674 -235.588,0 c 8.6029,43.01436 41.029,64.19047 86.029,64.19047 23.8239,0.66208 47.6469,-7.27963 66.8386,-21.17611 11.25,-8.60352 26.4704,-8.60352 37.0583,0 15.221,11.91142 17.8675,33.08819 5.9566,48.30737 -1.3242,1.98656 -3.3095,3.31045 -4.6325,5.2957 -31.1031,23.82304 -69.4853,37.05835 -108.5284,36.39693 -91.3247,0 -160.1486,-64.19263 -160.1486,-159.4857 0,-97.27866 72.7946,-158.82324 159.4853,-158.82324 86.6917,0 155.5147,60.88369 155.5147,156.17676 0,9.92611 -0.6618,19.85288 -1.985,29.11782 m -73.4555,-52.94171 c -4.6325,-41.69086 -36.3974,-66.17611 -78.75,-66.17611 -42.3535,0 -73.4566,19.85288 -82.7213,66.17611 l 161.4713,0 z"
         id="path9" />
    </g>
  </g>
</svg>
