<?xml version="1.0" encoding="UTF-8" standalone="no"?>
<!-- Created with Inkscape (http://www.inkscape.org/) -->

<svg
   xmlns:dc="http://purl.org/dc/elements/1.1/"
   xmlns:cc="http://creativecommons.org/ns#"
   xmlns:rdf="http://www.w3.org/1999/02/22-rdf-syntax-ns#"
   xmlns:svg="http://www.w3.org/2000/svg"
   xmlns="http://www.w3.org/2000/svg"
   xmlns:sodipodi="http://sodipodi.sourceforge.net/DTD/sodipodi-0.dtd"
   xmlns:inkscape="http://www.inkscape.org/namespaces/inkscape"
   width="292.48099mm"
   height="130mm"
   viewBox="0 0 292.48098 130"
   id="svg4698"
   version="1.1"
   inkscape:version="0.91 r"
   sodipodi:docname="tjdft.svg">
  <defs
     id="defs4700" />
  <sodipodi:namedview
     inkscape:document-units="mm"
     pagecolor="#ffffff"
     bordercolor="#666666"
     borderopacity="1.0"
     inkscape:pageopacity="0.0"
     inkscape:pageshadow="2"
     inkscape:zoom="1"
     inkscape:cx="524.36405"
     inkscape:cy="236.77156"
     inkscape:current-layer="layer1"
     id="namedview4702"
     showgrid="true"
     inkscape:window-width="1600"
     inkscape:window-height="850"
     inkscape:window-x="0"
     inkscape:window-y="0"
     inkscape:window-maximized="1">
    <inkscape:grid
       type="xygrid"
       id="grid4721" />
  </sodipodi:namedview>
  <metadata
     id="metadata4704">
    <rdf:RDF>
      <cc:Work
         rdf:about="">
        <dc:format>image/svg+xml</dc:format>
        <dc:type
           rdf:resource="http://purl.org/dc/dcmitype/StillImage" />
        <dc:title></dc:title>
      </cc:Work>
    </rdf:RDF>
  </metadata>
  <g
     inkscape:label="Layer 1"
     inkscape:groupmode="layer"
     id="layer1"
     transform="translate(0,-80)">
    <g
       id="g3339"
       transform="matrix(1.05,0,0,1.05,-0.23520355,-32.582007)">
      <path
         inkscape:connector-curvature="0"
         id="path24"
         style="fill:#000000;fill-opacity:1;fill-rule:nonzero;stroke:none"
         d="m 1.3825958,129.13567 0,8.54304 28.4756412,0 0,71.20306 11.394041,0 0,-71.20306 28.486066,0 0,-8.54304 -68.3557482,0" />
      <path
         inkscape:connector-curvature="0"
         id="path26"
         style="fill:#000000;fill-opacity:1;fill-rule:nonzero;stroke:none"
         d="m 209.27742,129.13567 0,8.54304 28.47867,0 0,71.20306 11.39424,0 0,-71.20306 28.46839,0 0,-8.54304 -68.3413,0" />
      <path
         inkscape:connector-curvature="0"
         id="path28"
         style="fill:#000000;fill-opacity:1;fill-rule:nonzero;stroke:none"
         d="m 175.0987,157.61511 0,-1.42193 c 0,-10.20518 4.82164,-18.51447 17.08564,-18.51447 l 0,-7e-4 11.3939,7e-4 0,-8.54304 -11.3939,0 c -18.5707,0 -28.47203,12.74929 -28.47203,28.47944 l 0,51.25947 11.38639,0 0,-37.0213 25.63878,0 0,-5.69539 -25.63878,0 0,-8.54278" />
      <path
         inkscape:connector-curvature="0"
         id="path30"
         style="fill:#000000;fill-opacity:1;fill-rule:nonzero;stroke:none"
         d="m 78.270536,129.13567 11.386665,7e-4 c 0,0 -0.186564,44.39728 -0.190283,46.81674 -0.240047,38.2564 -35.738095,32.91853 -35.738095,32.91853 l 0,-5.70214 c 20.608541,-2.31319 24.132099,-12.83599 24.546121,-23.43105 0.106975,-2.71361 0,-50.61273 0,-50.61273" />
      <path
         inkscape:connector-curvature="0"
         id="path32"
         style="fill:#000000;fill-opacity:1;fill-rule:nonzero;stroke:none"
         d="m 118.1404,200.33274 -8.53945,0 0,-62.65403 8.53945,0 c 14.15604,0 25.62799,8.54623 25.62799,31.33047 0,22.77653 -11.47195,31.32356 -25.62799,31.32356 z m 2.84761,-71.19707 -22.784156,0 0,79.7461 22.784156,0 c 18.87455,0 34.17049,-11.40042 34.17049,-39.87259 0,-28.47957 -15.29594,-39.87351 -34.17049,-39.87351" />
    </g>
  </g>
</svg>
